# xmcd
#
# Track frame offsets: 
#        150
#        19757
#        38332
#        62262
#        79682
#        96650
#        115897
#        133742
#        151575
#        172167
#        190890
#        208527
#        226745
#
# Disc length: 3293 seconds
#
# Revision: 8
# Processed by: cddbd v1.5.1PL2 Copyright (c) Steve Scherf et al.
# Submitted via: ExactAudioCopy v0.95b4
#
DISCID=9d0cdb0d
DTITLE=Kenny G - At Last... The Duets Album
DYEAR=2004
DGENRE=Jazz
TTITLE0=(Everything I Do) I Do It For You (Featuring LeAnn Rimes)
TTITLE1=At Last (Featuring Arturo Sandoval)
TTITLE2=I Believe I Can Fly (Featuring Yolanda Adams)
TTITLE3=Careless Whisper (Featuring Brian McKnight)
TTITLE4=Beautiful (Featuring Chaka Khan)
TTITLE5=Pick Up The Pieces (Featuring David Sanborn)
TTITLE6=Baby Come To Me (Featuring Daryl Hall)
TTITLE7=Misty (Featuring Gladys Knight)
TTITLE8=Don't Know Why (Featuring David Benoit)
TTITLE9=The Way You Move (Featuring Earth, Wind and Fire)
TTITLE10=Sorry Seems To Be The Hardest Word (Featuring Richard Marx)
TTITLE11=Alfie (Featuring Burt Bacharach)
TTITLE12=The Music That Makes Me Dance (Featuring Barbra Streisand)
EXTD=YEAR: 2004
EXTT0=
EXTT1=
EXTT2=
EXTT3=
EXTT4=
EXTT5=
EXTT6=
EXTT7=
EXTT8=
EXTT9=
EXTT10=
EXTT11=
EXTT12=
PLAYORDER=
